<?xml version="1.0" encoding="UTF-8"?>
<svg xmlns="http://www.w3.org/2000/svg" xmlns:xlink="http://www.w3.org/1999/xlink" width="371pt" height="227pt" viewBox="0 0 371 227" version="1.1">
<g id="surface77099">
<rect x="0" y="0" width="371" height="227" style="fill:rgb(100%,100%,100%);fill-opacity:1;stroke:none;"/>
<path style="fill:none;stroke-width:0.19;stroke-linecap:butt;stroke-linejoin:miter;stroke:rgb(0%,0%,0%);stroke-opacity:1;stroke-miterlimit:10;" d="M 19.880055 7.478072 L 19.880055 8.078072 L 19.315407 8.078072 L 19.315407 9.878072 L 19.880055 9.878072 L 19.880055 10.478072 " transform="matrix(20,0,0,20,-359.960479,-136.50284)"/>
<path style="fill:none;stroke-width:0.19;stroke-linecap:butt;stroke-linejoin:miter;stroke:rgb(0%,0%,0%);stroke-opacity:1;stroke-miterlimit:10;" d="M 18.93904 7.778072 L 18.93904 10.178072 " transform="matrix(20,0,0,20,-359.960479,-136.50284)"/>
<path style="fill:none;stroke-width:0.19;stroke-linecap:butt;stroke-linejoin:miter;stroke:rgb(0%,0%,0%);stroke-opacity:1;stroke-miterlimit:10;" d="M 18.110915 8.978072 L 17.998024 8.978072 " transform="matrix(20,0,0,20,-359.960479,-136.50284)"/>
<path style="fill:none;stroke-width:0.19;stroke-linecap:butt;stroke-linejoin:miter;stroke:rgb(0%,0%,0%);stroke-opacity:1;stroke-miterlimit:10;" d="M 18.863649 8.978072 C 18.863649 9.143892 18.69529 9.278072 18.487282 9.278072 C 18.279469 9.278072 18.110915 9.143892 18.110915 8.978072 C 18.110915 8.812447 18.279469 8.678072 18.487282 8.678072 C 18.69529 8.678072 18.863649 8.812447 18.863649 8.978072 " transform="matrix(20,0,0,20,-359.960479,-136.50284)"/>
<path style="fill:none;stroke-width:0.2;stroke-linecap:butt;stroke-linejoin:miter;stroke:rgb(0%,0%,0%);stroke-opacity:1;stroke-miterlimit:10;" d="M 19.880055 10.478072 L 19.880055 12.069869 " transform="matrix(20,0,0,20,-359.960479,-136.50284)"/>
<path style="fill:none;stroke-width:0.2;stroke-linecap:butt;stroke-linejoin:miter;stroke:rgb(0%,0%,0%);stroke-opacity:1;stroke-dasharray:1,1;stroke-miterlimit:10;" d="M 19.876735 11.868111 L 19.937672 18.06479 " transform="matrix(20,0,0,20,-359.960479,-136.50284)"/>
<path style="fill:none;stroke-width:0.19;stroke-linecap:butt;stroke-linejoin:miter;stroke:rgb(0%,0%,0%);stroke-opacity:1;stroke-miterlimit:10;" d="M 18.883961 6.920064 L 20.883961 6.920064 " transform="matrix(20,0,0,20,-359.960479,-136.50284)"/>
<path style="fill:none;stroke-width:0.19;stroke-linecap:butt;stroke-linejoin:miter;stroke:rgb(0%,0%,0%);stroke-opacity:1;stroke-miterlimit:10;" d="M 19.883961 6.920064 L 19.883961 7.479048 " transform="matrix(20,0,0,20,-359.960479,-136.50284)"/>
<path style="fill:none;stroke-width:0.19;stroke-linecap:butt;stroke-linejoin:miter;stroke:rgb(0%,0%,0%);stroke-opacity:1;stroke-miterlimit:10;" d="M 25.125758 12.102486 L 25.125758 12.702486 L 24.56111 12.702486 L 24.56111 14.502486 L 25.125758 14.502486 L 25.125758 15.102486 " transform="matrix(20,0,0,20,-359.960479,-136.50284)"/>
<path style="fill:none;stroke-width:0.19;stroke-linecap:butt;stroke-linejoin:miter;stroke:rgb(0%,0%,0%);stroke-opacity:1;stroke-miterlimit:10;" d="M 24.184743 12.402486 L 24.184743 14.802486 " transform="matrix(20,0,0,20,-359.960479,-136.50284)"/>
<path style="fill:none;stroke-width:0.19;stroke-linecap:butt;stroke-linejoin:miter;stroke:rgb(0%,0%,0%);stroke-opacity:1;stroke-miterlimit:10;" d="M 23.356618 13.602486 L 23.243727 13.602486 " transform="matrix(20,0,0,20,-359.960479,-136.50284)"/>
<path style="fill:none;stroke-width:0.19;stroke-linecap:butt;stroke-linejoin:miter;stroke:rgb(0%,0%,0%);stroke-opacity:1;stroke-miterlimit:10;" d="M 24.109352 13.602486 C 24.109352 13.768306 23.940993 13.902486 23.732985 13.902486 C 23.525172 13.902486 23.356618 13.768306 23.356618 13.602486 C 23.356618 13.436861 23.525172 13.302486 23.732985 13.302486 C 23.940993 13.302486 24.109352 13.436861 24.109352 13.602486 " transform="matrix(20,0,0,20,-359.960479,-136.50284)"/>
<path style="fill:none;stroke-width:0.19;stroke-linecap:butt;stroke-linejoin:miter;stroke:rgb(0%,0%,0%);stroke-opacity:1;stroke-miterlimit:10;" d="M 25.125758 7.510884 L 25.125758 8.110884 L 24.56111 8.110884 L 24.56111 9.910884 L 25.125758 9.910884 L 25.125758 10.510884 " transform="matrix(20,0,0,20,-359.960479,-136.50284)"/>
<path style="fill:none;stroke-width:0.19;stroke-linecap:butt;stroke-linejoin:miter;stroke:rgb(0%,0%,0%);stroke-opacity:1;stroke-miterlimit:10;" d="M 24.184743 7.810884 L 24.184743 10.210884 " transform="matrix(20,0,0,20,-359.960479,-136.50284)"/>
<path style="fill:none;stroke-width:0.19;stroke-linecap:butt;stroke-linejoin:miter;stroke:rgb(0%,0%,0%);stroke-opacity:1;stroke-miterlimit:10;" d="M 23.356618 9.010884 L 23.243727 9.010884 " transform="matrix(20,0,0,20,-359.960479,-136.50284)"/>
<path style="fill:none;stroke-width:0.19;stroke-linecap:butt;stroke-linejoin:miter;stroke:rgb(0%,0%,0%);stroke-opacity:1;stroke-miterlimit:10;" d="M 24.109352 9.010884 C 24.109352 9.176509 23.940993 9.310884 23.732985 9.310884 C 23.525172 9.310884 23.356618 9.176509 23.356618 9.010884 C 23.356618 8.845064 23.525172 8.710884 23.732985 8.710884 C 23.940993 8.710884 24.109352 8.845064 24.109352 9.010884 " transform="matrix(20,0,0,20,-359.960479,-136.50284)"/>
<path style="fill:none;stroke-width:0.2;stroke-linecap:butt;stroke-linejoin:miter;stroke:rgb(0%,0%,0%);stroke-opacity:1;stroke-miterlimit:10;" d="M 25.125758 10.510884 L 25.125758 12.102486 " transform="matrix(20,0,0,20,-359.960479,-136.50284)"/>
<path style="fill:none;stroke-width:0.2;stroke-linecap:butt;stroke-linejoin:miter;stroke:rgb(0%,0%,0%);stroke-opacity:1;stroke-dasharray:1,1;stroke-miterlimit:10;" d="M 25.125758 15.102486 L 25.183376 18.097603 " transform="matrix(20,0,0,20,-359.960479,-136.50284)"/>
<path style="fill:none;stroke-width:0.19;stroke-linecap:butt;stroke-linejoin:miter;stroke:rgb(0%,0%,0%);stroke-opacity:1;stroke-miterlimit:10;" d="M 24.129665 6.952876 L 26.129665 6.952876 " transform="matrix(20,0,0,20,-359.960479,-136.50284)"/>
<path style="fill:none;stroke-width:0.19;stroke-linecap:butt;stroke-linejoin:miter;stroke:rgb(0%,0%,0%);stroke-opacity:1;stroke-miterlimit:10;" d="M 25.129665 6.952876 L 25.129665 7.511665 " transform="matrix(20,0,0,20,-359.960479,-136.50284)"/>
<path style="fill:none;stroke-width:0.19;stroke-linecap:butt;stroke-linejoin:miter;stroke:rgb(0%,0%,0%);stroke-opacity:1;stroke-miterlimit:10;" d="M 30.301735 12.113228 L 30.301735 12.713228 L 29.737282 12.713228 L 29.737282 14.513228 L 30.301735 14.513228 L 30.301735 15.113228 " transform="matrix(20,0,0,20,-359.960479,-136.50284)"/>
<path style="fill:none;stroke-width:0.19;stroke-linecap:butt;stroke-linejoin:miter;stroke:rgb(0%,0%,0%);stroke-opacity:1;stroke-miterlimit:10;" d="M 29.360915 12.413228 L 29.360915 14.813228 " transform="matrix(20,0,0,20,-359.960479,-136.50284)"/>
<path style="fill:none;stroke-width:0.19;stroke-linecap:butt;stroke-linejoin:miter;stroke:rgb(0%,0%,0%);stroke-opacity:1;stroke-miterlimit:10;" d="M 28.53279 13.613228 L 28.419899 13.613228 " transform="matrix(20,0,0,20,-359.960479,-136.50284)"/>
<path style="fill:none;stroke-width:0.19;stroke-linecap:butt;stroke-linejoin:miter;stroke:rgb(0%,0%,0%);stroke-opacity:1;stroke-miterlimit:10;" d="M 29.285524 13.613228 C 29.285524 13.779048 29.116969 13.913228 28.909157 13.913228 C 28.701344 13.913228 28.53279 13.779048 28.53279 13.613228 C 28.53279 13.447603 28.701344 13.313228 28.909157 13.313228 C 29.116969 13.313228 29.285524 13.447603 29.285524 13.613228 " transform="matrix(20,0,0,20,-359.960479,-136.50284)"/>
<path style="fill:none;stroke-width:0.19;stroke-linecap:butt;stroke-linejoin:miter;stroke:rgb(0%,0%,0%);stroke-opacity:1;stroke-miterlimit:10;" d="M 30.301735 7.521626 L 30.301735 8.121626 L 29.737282 8.121626 L 29.737282 9.921626 L 30.301735 9.921626 L 30.301735 10.521626 " transform="matrix(20,0,0,20,-359.960479,-136.50284)"/>
<path style="fill:none;stroke-width:0.19;stroke-linecap:butt;stroke-linejoin:miter;stroke:rgb(0%,0%,0%);stroke-opacity:1;stroke-miterlimit:10;" d="M 29.360915 7.821626 L 29.360915 10.221626 " transform="matrix(20,0,0,20,-359.960479,-136.50284)"/>
<path style="fill:none;stroke-width:0.19;stroke-linecap:butt;stroke-linejoin:miter;stroke:rgb(0%,0%,0%);stroke-opacity:1;stroke-miterlimit:10;" d="M 28.53279 9.021626 L 28.419899 9.021626 " transform="matrix(20,0,0,20,-359.960479,-136.50284)"/>
<path style="fill:none;stroke-width:0.19;stroke-linecap:butt;stroke-linejoin:miter;stroke:rgb(0%,0%,0%);stroke-opacity:1;stroke-miterlimit:10;" d="M 29.285524 9.021626 C 29.285524 9.187251 29.116969 9.321626 28.909157 9.321626 C 28.701344 9.321626 28.53279 9.187251 28.53279 9.021626 C 28.53279 8.856001 28.701344 8.721626 28.909157 8.721626 C 29.116969 8.721626 29.285524 8.856001 29.285524 9.021626 " transform="matrix(20,0,0,20,-359.960479,-136.50284)"/>
<path style="fill:none;stroke-width:0.2;stroke-linecap:butt;stroke-linejoin:miter;stroke:rgb(0%,0%,0%);stroke-opacity:1;stroke-miterlimit:10;" d="M 30.301735 10.521626 L 30.301735 12.113228 " transform="matrix(20,0,0,20,-359.960479,-136.50284)"/>
<path style="fill:none;stroke-width:0.2;stroke-linecap:butt;stroke-linejoin:miter;stroke:rgb(0%,0%,0%);stroke-opacity:1;stroke-dasharray:1,1;stroke-miterlimit:10;" d="M 30.301735 15.113228 L 30.359547 18.108345 " transform="matrix(20,0,0,20,-359.960479,-136.50284)"/>
<path style="fill:none;stroke-width:0.19;stroke-linecap:butt;stroke-linejoin:miter;stroke:rgb(0%,0%,0%);stroke-opacity:1;stroke-miterlimit:10;" d="M 29.305836 6.963619 L 31.305836 6.963619 " transform="matrix(20,0,0,20,-359.960479,-136.50284)"/>
<path style="fill:none;stroke-width:0.19;stroke-linecap:butt;stroke-linejoin:miter;stroke:rgb(0%,0%,0%);stroke-opacity:1;stroke-miterlimit:10;" d="M 30.305836 6.963619 L 30.305836 7.522408 " transform="matrix(20,0,0,20,-359.960479,-136.50284)"/>
<path style="fill:none;stroke-width:0.19;stroke-linecap:butt;stroke-linejoin:miter;stroke:rgb(0%,0%,0%);stroke-opacity:1;stroke-miterlimit:10;" d="M 35.411696 12.107173 L 35.411696 12.707173 L 34.847047 12.707173 L 34.847047 14.507173 L 35.411696 14.507173 L 35.411696 15.107173 " transform="matrix(20,0,0,20,-359.960479,-136.50284)"/>
<path style="fill:none;stroke-width:0.19;stroke-linecap:butt;stroke-linejoin:miter;stroke:rgb(0%,0%,0%);stroke-opacity:1;stroke-miterlimit:10;" d="M 34.47068 12.407173 L 34.47068 14.807173 " transform="matrix(20,0,0,20,-359.960479,-136.50284)"/>
<path style="fill:none;stroke-width:0.19;stroke-linecap:butt;stroke-linejoin:miter;stroke:rgb(0%,0%,0%);stroke-opacity:1;stroke-miterlimit:10;" d="M 33.642555 13.607173 L 33.529665 13.607173 " transform="matrix(20,0,0,20,-359.960479,-136.50284)"/>
<path style="fill:none;stroke-width:0.19;stroke-linecap:butt;stroke-linejoin:miter;stroke:rgb(0%,0%,0%);stroke-opacity:1;stroke-miterlimit:10;" d="M 34.39529 13.607173 C 34.39529 13.772994 34.22693 13.907173 34.018922 13.907173 C 33.81111 13.907173 33.642555 13.772994 33.642555 13.607173 C 33.642555 13.441548 33.81111 13.307173 34.018922 13.307173 C 34.22693 13.307173 34.39529 13.441548 34.39529 13.607173 " transform="matrix(20,0,0,20,-359.960479,-136.50284)"/>
<path style="fill:none;stroke-width:0.19;stroke-linecap:butt;stroke-linejoin:miter;stroke:rgb(0%,0%,0%);stroke-opacity:1;stroke-miterlimit:10;" d="M 35.411696 7.515572 L 35.411696 8.115572 L 34.847047 8.115572 L 34.847047 9.915572 L 35.411696 9.915572 L 35.411696 10.515572 " transform="matrix(20,0,0,20,-359.960479,-136.50284)"/>
<path style="fill:none;stroke-width:0.19;stroke-linecap:butt;stroke-linejoin:miter;stroke:rgb(0%,0%,0%);stroke-opacity:1;stroke-miterlimit:10;" d="M 34.47068 7.815572 L 34.47068 10.215572 " transform="matrix(20,0,0,20,-359.960479,-136.50284)"/>
<path style="fill:none;stroke-width:0.19;stroke-linecap:butt;stroke-linejoin:miter;stroke:rgb(0%,0%,0%);stroke-opacity:1;stroke-miterlimit:10;" d="M 33.642555 9.015572 L 33.529665 9.015572 " transform="matrix(20,0,0,20,-359.960479,-136.50284)"/>
<path style="fill:none;stroke-width:0.19;stroke-linecap:butt;stroke-linejoin:miter;stroke:rgb(0%,0%,0%);stroke-opacity:1;stroke-miterlimit:10;" d="M 34.39529 9.015572 C 34.39529 9.181197 34.22693 9.315572 34.018922 9.315572 C 33.81111 9.315572 33.642555 9.181197 33.642555 9.015572 C 33.642555 8.849751 33.81111 8.715572 34.018922 8.715572 C 34.22693 8.715572 34.39529 8.849751 34.39529 9.015572 " transform="matrix(20,0,0,20,-359.960479,-136.50284)"/>
<path style="fill:none;stroke-width:0.2;stroke-linecap:butt;stroke-linejoin:miter;stroke:rgb(0%,0%,0%);stroke-opacity:1;stroke-miterlimit:10;" d="M 35.411696 10.515572 L 35.411696 12.107173 " transform="matrix(20,0,0,20,-359.960479,-136.50284)"/>
<path style="fill:none;stroke-width:0.2;stroke-linecap:butt;stroke-linejoin:miter;stroke:rgb(0%,0%,0%);stroke-opacity:1;stroke-dasharray:1,1;stroke-miterlimit:10;" d="M 35.411696 15.107173 L 35.469313 18.10229 " transform="matrix(20,0,0,20,-359.960479,-136.50284)"/>
<path style="fill:none;stroke-width:0.19;stroke-linecap:butt;stroke-linejoin:miter;stroke:rgb(0%,0%,0%);stroke-opacity:1;stroke-miterlimit:10;" d="M 34.415602 6.957564 L 36.415602 6.957564 " transform="matrix(20,0,0,20,-359.960479,-136.50284)"/>
<path style="fill:none;stroke-width:0.19;stroke-linecap:butt;stroke-linejoin:miter;stroke:rgb(0%,0%,0%);stroke-opacity:1;stroke-miterlimit:10;" d="M 35.415602 6.957564 L 35.415602 7.516353 " transform="matrix(20,0,0,20,-359.960479,-136.50284)"/>
<path style="fill:none;stroke-width:0.2;stroke-linecap:butt;stroke-linejoin:miter;stroke:rgb(0%,0%,0%);stroke-opacity:1;stroke-miterlimit:10;" d="M 34.916383 13.604439 L 36.491383 13.591939 " transform="matrix(20,0,0,20,-359.960479,-136.50284)"/>
<path style="fill:none;stroke-width:0.2;stroke-linecap:butt;stroke-linejoin:miter;stroke:rgb(0%,0%,0%);stroke-opacity:1;stroke-miterlimit:10;" d="M 35.337868 15.449556 L 36.496657 15.440376 " transform="matrix(20,0,0,20,-359.960479,-136.50284)"/>
<path style="fill:none;stroke-width:0.2;stroke-linecap:butt;stroke-linejoin:miter;stroke:rgb(0%,0%,0%);stroke-opacity:1;stroke-miterlimit:10;" d="M 36.391383 13.535689 L 36.399196 15.400142 " transform="matrix(20,0,0,20,-359.960479,-136.50284)"/>
<path style="fill:none;stroke-width:0.2;stroke-linecap:butt;stroke-linejoin:miter;stroke:rgb(0%,0%,0%);stroke-opacity:1;stroke-miterlimit:10;" d="M 27.678297 15.42065 L 30.206227 15.414986 " transform="matrix(20,0,0,20,-359.960479,-136.50284)"/>
<path style="fill:none;stroke-width:0.2;stroke-linecap:butt;stroke-linejoin:miter;stroke:rgb(0%,0%,0%);stroke-opacity:1;stroke-miterlimit:10;" d="M 27.672438 13.615376 L 28.419899 13.613228 " transform="matrix(20,0,0,20,-359.960479,-136.50284)"/>
<path style="fill:none;stroke-width:0.2;stroke-linecap:butt;stroke-linejoin:miter;stroke:rgb(0%,0%,0%);stroke-opacity:1;stroke-miterlimit:10;" d="M 27.769704 13.633931 L 27.777516 15.498384 " transform="matrix(20,0,0,20,-359.960479,-136.50284)"/>
</g>
</svg>
